<?xml version="1.0" encoding="UTF-8"?>
<svg id="Layer_1" data-name="Layer 1" xmlns="http://www.w3.org/2000/svg" viewBox="0 0 241.6572 242.1011">
  <path id="fullLogo" d="M27.0195,44.7022h-.1377c-2.2763,3.8633-6.2773,5.519-10.831,5.519C5.2891,50.2212,.0469,40.9771,.0469,31.1123,.0469,21.5235,5.3594,12.6245,15.8438,12.6245c4.2089,0,8.3476,1.7935,10.5546,5.3116h.1387V0h9.7959V49.2554h-9.3135v-4.5532Zm-8.5537-24.6963c-6.415,0-8.623,5.5185-8.623,11.3823,0,5.5879,2.5517,11.4517,8.623,11.4517,6.4854,0,8.416-5.6568,8.416-11.5205,0-5.795-2.0693-11.3135-8.416-11.3135Z" style="fill: #f4bc08;"/>
  <path id="fullLogo-2" data-name="fullLogo" d="M48.0566,33.8028c.2754,6.2085,3.3106,9.0371,8.7608,9.0371,3.9326,0,7.1055-2.4146,7.7256-4.6221h8.623c-2.7588,8.416-8.623,12.0034-16.6933,12.0034-11.2442,0-18.2129-7.7265-18.2129-18.7641,0-10.6924,7.3818-18.8326,18.2129-18.8326,12.1406,0,18.0048,10.2095,17.3144,21.1783h-25.7305Zm15.9356-6.2085c-.8975-4.9673-3.0352-7.5884-7.7959-7.5884-6.208,0-8.002,4.8286-8.1397,7.5884h15.9356Z" style="fill: #f4bc08;"/>
  <path id="fullLogo-3" data-name="fullLogo" d="M76.0596,13.5904h9.3134v4.5527h.1368c2.3457-3.794,6.209-5.5186,10.625-5.5186,11.1757,0,16.2109,9.0371,16.2109,19.1778,0,9.52-5.2422,18.4189-15.6602,18.4189-4.2773,0-8.3457-1.8628-10.6914-5.3808h-.1386v16.9702h-9.7959V13.5904Zm26.4912,17.936c0-5.6567-2.2774-11.5205-8.5547-11.5205-6.416,0-8.4863,5.7256-8.4863,11.5205s2.209,11.3135,8.5547,11.3135c6.416,0,8.4863-5.5191,8.4863-11.3135Z" style="fill: #f4bc08;"/>
  <path id="fullLogo-4" data-name="fullLogo" d="M124.6895,8.0713h-9.795V0h9.795V8.0713Zm-9.795,5.5191h9.795V49.2554h-9.795V13.5904Z" style="fill: #f4bc08;"/>
  <path id="fullLogo-5" data-name="fullLogo" d="M153.5234,26.1455c-.6211-4.0014-3.1718-6.1396-7.2421-6.1396-6.2774,0-8.3477,6.3467-8.3477,11.5893,0,5.105,2,11.2447,8.1406,11.2447,4.5528,0,7.1738-2.8975,7.7949-7.2437h9.4512c-1.2422,9.4512-7.7949,14.625-17.1777,14.625-10.7617,0-18.0059-7.5884-18.0059-18.2812,0-11.1065,6.6231-19.3155,18.2129-19.3155,8.416,0,16.1426,4.4151,16.7637,13.521h-9.5899Z" style="fill: #f4bc08;"/>
  <path id="fullLogo-6" data-name="fullLogo" d="M179.1816,13.5904h7.1758v6.5532h-7.1758v15.9575c0,1.4473,.8282,4.1382,4.1387,4.1382,1.0352,0,2.002,.0444,3.0371-.1626v9.2475c-1.6562,.2759-3.7949,.3453-5.7265,.3453-6.002,0-11.2442-3.2964-11.2442-10.4019V20.1436h-5.9336v-6.5532h5.9336V2.8975h9.7949V13.5904Z" style="fill: #f4bc08;"/>
  <path id="fullLogo-7" data-name="fullLogo" d="M241.6572,40.0791v9.7959h-17.9355v.1382c3.6562,2.4146,5.3115,6.8296,5.3115,11.2446,0,7.105-5.7256,14.7627-18.7637,14.7627-13.1074,0-18.833-7.6577-18.833-14.7627,0-5.2431,1.5869-9.5893,5.5186-11.7275v-.1382h-4.5528v-9.313h49.2549Zm-20.0049,17.7984c0-5.795-5.4502-8.3472-11.4521-8.3472-5.9326,0-11.3818,2.5522-11.3818,8.3472s5.4492,8.3471,11.3818,8.3471c6.0019,0,11.4521-2.5527,11.4521-8.3471Z" style="fill: #f4bc08;"/>
  <path id="fullLogo-8" data-name="fullLogo" d="M228.0674,78.0855v9.313h-6.6221v.1381c4.4834,1.7935,7.5879,6.6226,7.5879,11.3824,0,.6899-.1377,1.5175-.3447,2.1386h-9.1065c.2071-.8969,.3457-2.3457,.3457-3.518,0-7.1748-5.1738-9.6582-11.4521-9.6582h-16.0733v-9.7959h35.6651Z" style="fill: #f4bc08;"/>
  <path id="fullLogo-9" data-name="fullLogo" d="M217.0986,100.8482c9.1758,.5517,11.9346,8.7607,11.9346,16.7627,0,7.1054-1.5869,15.6601-10.1406,15.6601h-18.5567c-3.2421,0-6.4853,.3457-7.9336,1.2422v-9.9336c1.1036-.3457,2.2764-.6211,3.4493-.6894-3.2422-3.1055-4.4151-7.6582-4.4151-12.0049,0-6.7608,3.3799-12.1411,10.6924-12.1411,8.0713,0,10.0029,6.0708,10.8311,12.1411,.8964,6.0029,.6894,11.5908,4.6904,11.5908,4.209,0,4.8291-2.8984,4.8291-6.3477,0-3.7246-1.5176-6.1396-5.3809-6.4843v-9.7959Zm-7.2431,22.6279c-1.4483-1.6562-1.5176-5.1055-2.0694-8.1406-.6211-3.0362-1.6562-5.7949-5.2431-5.7949-3.6563,0-4.5528,2.8281-4.5528,6.0009,0,7.6573,6.0703,7.9346,8.209,7.9346h3.6563Z" style="fill: #f4bc08;"/>
  <path id="fullLogo-10" data-name="fullLogo" d="M228.0674,136.0269v9.3125h-4.9668v.207c4.001,2.4844,5.9326,6.7617,5.9326,10.9004,0,10.416-5.8633,13.0371-14.6934,13.0371h-21.9375v-9.7949h20.1436c5.8643,0,8.7607-1.7246,8.7607-6.2774,0-5.3125-2.9658-7.5878-10.2089-7.5878h-18.6954v-9.7969h35.6651Z" style="fill: #f4bc08;"/>
  <path id="fullLogo-11" data-name="fullLogo" d="M196.9551,198.73v-.1387c-3.8633-2.2754-5.5186-6.2773-5.5186-10.83,0-10.7618,9.2442-16.0039,19.1084-16.0039,9.5899,0,18.4883,5.3105,18.4883,15.7968,0,4.2071-1.793,8.3477-5.3115,10.5547v.1387h17.9355v9.7949h-49.2549v-9.3125h4.5528Zm24.6972-8.5547c0-6.416-5.5195-8.623-11.3828-8.623-5.5879,0-11.4511,2.5527-11.4511,8.623,0,6.4844,5.6562,8.416,11.5205,8.416,5.7939,0,11.3134-2.0703,11.3134-8.416Z" style="fill: #f4bc08;"/>
  <path id="fullLogo-12" data-name="fullLogo" d="M203.9922,218.1792c-4.2774,.0684-6.002,3.6563-6.002,7.5196,0,2.8281,1.1036,6.414,4.5528,6.414,2.9668,0,4.0009-4.0683,5.5185-11.1054,1.2422-5.6563,3.2432-11.3145,9.5205-11.3145,9.1055,0,11.4512,7.8652,11.4512,15.5215,0,7.7969-2.6211,14.9707-11.3828,15.7285v-9.3125c3.7949-.2754,4.8291-3.1719,4.8291-6.6914,0-2.207-.4141-5.4492-3.3106-5.4492-3.5185,0-4.0019,5.5176-5.3125,11.1054-1.3105,5.7266-3.3798,11.3145-10.0029,11.3145-9.3818,0-12.417-8.1406-12.417-16.2813,0-8.2773,3.1045-16.3496,12.5557-16.7617v9.3125Z" style="fill: #f4bc08;"/>
  <path id="fullLogo-13" data-name="fullLogo" d="M186,242.1011H0V56.1011H186V242.1011ZM10,232.1011H176V66.1011H10V232.1011Z" style="fill: #f4bc08;"/>
</svg>